HIERARCHY
ROOT root
{
	OFFSET	0	13.1	24.9
	CHANNELS 6  Xposition Yposition Zposition Xrotation Yrotation Zrotation
	JOINT spine_1
	{
		OFFSET	0	9.99999	0
		CHANNELS 3  Xrotation Yrotation Zrotation
		JOINT spine_2
		{
			OFFSET	0	112	-10
			CHANNELS 3  Xrotation Yrotation Zrotation
			JOINT spine_3
			{
				OFFSET	0	206.5	19.3
				CHANNELS 3  Xrotation Yrotation Zrotation
				JOINT spine_4
				{
					OFFSET	0	110.4	14.6
					CHANNELS 3  Xrotation Yrotation Zrotation
					JOINT neck_1
					{
						OFFSET	0	71.8	-50.3
						CHANNELS 3  Xrotation Yrotation Zrotation
						JOINT neck_2
						{
							OFFSET	0	86.2	-25.8
							CHANNELS 3  Xrotation Yrotation Zrotation
							JOINT head_ee
							{
								OFFSET	0	179.8	-8.7
								CHANNELS 3  Xrotation Yrotation Zrotation
								End Site
								{
									OFFSET	1	0	0
								}
							}
						}
					}
					JOINT left_clavicle
					{
						OFFSET	-43.2	22.4	-70.8
						CHANNELS 3  Xrotation Yrotation Zrotation
						JOINT left_shoulder
						{
							OFFSET	-93.9	-5.79999	48.7
							CHANNELS 3  Xrotation Yrotation Zrotation
							JOINT left_elbow
							{
								OFFSET	-291.4	-30.8	15.2
								CHANNELS 3  Xrotation Yrotation Zrotation
								JOINT left_lowarm_twist
								{
									OFFSET	-110.7	-3.89999	13.6
									CHANNELS 3  Xrotation Yrotation Zrotation
									JOINT left_hand
									{
										OFFSET	-110.7	-3.89999	13.6
										CHANNELS 3  Xrotation Yrotation Zrotation
										JOINT left_ee
										{
											OFFSET	-80.8	-5.10001	12.1
											CHANNELS 3  Xrotation Yrotation Zrotation
											End Site
											{
												OFFSET	1	0	0
											}
										}
									}
								}
							}
						}
					}
					JOINT right_clavicle
					{
						OFFSET	43.2	22.4	-70.8
						CHANNELS 3  Xrotation Yrotation Zrotation
						JOINT right_shoulder
						{
							OFFSET	93.9	-5.79999	48.7
							CHANNELS 3  Xrotation Yrotation Zrotation
							JOINT right_elbow
							{
								OFFSET	291.4	-30.8	15.2
								CHANNELS 3  Xrotation Yrotation Zrotation
								JOINT right_lowarm_twist
								{
									OFFSET	110.7	-3.89999	13.6
									CHANNELS 3  Xrotation Yrotation Zrotation
									JOINT right_hand
									{
										OFFSET	110.7	-3.89999	13.6
										CHANNELS 3  Xrotation Yrotation Zrotation
										JOINT right_ee
										{
											OFFSET	80.8	-5.10001	12.1
											CHANNELS 3  Xrotation Yrotation Zrotation
											End Site
											{
												OFFSET	1	0	0
											}
										}
									}
								}
							}
						}
					}
				}
			}
		}
	}
	JOINT left_hip
	{
		OFFSET	-82.8	-127.5	0.300001
		CHANNELS 3  Xrotation Yrotation Zrotation
		JOINT left_knee
		{
			OFFSET	-28.2	-396.7	2.2
			CHANNELS 3  Xrotation Yrotation Zrotation
			JOINT left_ankle
			{
				OFFSET	-11.7	-411.3	35.4
				CHANNELS 3  Xrotation Yrotation Zrotation
				JOINT left_toes
				{
					OFFSET	0	-60	-88.6
					CHANNELS 3  Xrotation Yrotation Zrotation
					JOINT left_foot_ee
					{
						OFFSET	-22.5	-16.5	-42.2
						CHANNELS 3  Xrotation Yrotation Zrotation
						End Site
						{
							OFFSET	1	0	0
						}
					}
				}
			}
		}
	}
	JOINT right_hip
	{
		OFFSET	82.8	-127.5	0.300001
		CHANNELS 3  Xrotation Yrotation Zrotation
		JOINT right_knee
		{
			OFFSET	28.2	-396.7	2.2
			CHANNELS 3  Xrotation Yrotation Zrotation
			JOINT right_ankle
			{
				OFFSET	11.7	-411.3	35.4
				CHANNELS 3  Xrotation Yrotation Zrotation
				JOINT right_toes
				{
					OFFSET	0	-60	-88.6
					CHANNELS 3  Xrotation Yrotation Zrotation
					JOINT right_foot_ee
					{
						OFFSET	22.5	-16.5	-42.2
						CHANNELS 3  Xrotation Yrotation Zrotation
						End Site
						{
							OFFSET	1	0	0
						}
					}
				}
			}
		}
	}
}
MOTION
Frames: 10
Frame Time: 0.02
845.152864754 582.018 -1798.62111664 -60.3632092562 63.2791296236 70.0087178574 9.18723 -1.26631 -2.39429 9.18973 -1.11144 -2.46996 9.23166 -0.986003 -2.52263 9.2254 -1.37193 -2.3354 -7.80906 -15.7272 7.73743 -7.67941 -34.7609 4.2724 -0.0 0.0 -0.0 13.8032 -27.0981 27.4038 0.60248 -8.61449 64.2845 0.79187 -21.4185 0.14976 84.4473 -4.36047 -8.84033 0.685401 -6.82313 1.73154 -0.0 0.0 -0.0 -1.92764 -24.5499 -0.257257 17.488 -51.3479 -72.3524 0.197186 5.5791 -0.00960799 62.4446 1.99634 7.32877 -1.91936 0.53853 13.18 0.0 0.0 0.0 36.6759 -35.7964 -7.25863 -9.3771 0.271043 1.41197 35.1007 6.65906 -4.409 40.1292 -0.0 -0.0 -0.0 0.0 -0.0 48.6253 -16.2394 -6.35057 -69.665 3.32887 -9.49829 32.1119 13.9559 4.36767 35.9045 -0.0 -0.0 0.0 0.0 0.0 
807.952622908 572.044 -1806.98296813 -53.0905210084 62.9708524525 64.9424462912 9.19449 -1.36654 -4.15739 9.20344 -1.09947 -4.23573 9.26517 -0.88888 -4.28478 9.24292 -1.55387 -4.09116 -16.6865 -15.0355 14.1966 -17.7506 -36.768 7.48524 -0.0 0.0 -0.0 13.4164 -27.9125 26.3984 6.97906 -11.7369 63.4828 0.738807 -20.1018 0.13095 61.9687 -1.9523 -7.28651 8.38964 -24.3495 49.0568 -0.0 0.0 -0.0 -6.51742 -24.1533 6.07625 14.7856 -34.401 -89.6999 0.196434 5.55796 -0.00953497 43.4906 0.543162 5.39761 -4.25346 14.2594 37.0261 0.0 0.0 0.0 30.071 -32.2532 -12.2161 -11.5524 0.300652 1.74441 41.5267 10.6287 -5.0133 40.1298 -0.0 -0.0 -0.0 0.0 -0.0 54.378 0.230207 -9.61371 -66.1728 2.90209 -9.16872 13.7915 -5.75327 1.93428 28.3062 -0.0 -0.0 0.0 0.0 0.0 
798.965946852 567.406 -1807.37859954 -53.7621346452 64.355810802 66.28784917 9.16967 -1.37413 -4.29076 9.17924 -1.09858 -4.3693 9.24223 -0.87969 -4.41848 9.21841 -1.56585 -4.22467 -17.3567 -14.7563 14.9382 -18.4486 -36.5167 8.08383 -0.0 0.0 -0.0 13.5371 -28.1529 26.6448 6.90989 -11.7918 63.4542 0.765769 -20.7737 0.140365 58.0952 -1.60731 -6.92946 8.09134 -26.0769 44.6825 -0.0 0.0 -0.0 -6.65882 -23.4464 6.49407 13.9935 -33.2573 -89.555 0.182143 5.15587 -0.00820084 40.5738 0.379446 5.06236 -4.50179 13.3349 38.6933 0.0 0.0 0.0 27.9852 -33.9961 -12.9576 -12.6689 0.310943 1.91542 42.0297 10.7929 -5.05716 40.2105 -0.0 -0.0 -0.0 0.0 -0.0 53.198 4.72876 -10.5704 -47.6038 1.01994 -7.02796 -6.1385 -16.6984 -0.918864 19.7115 -0.0 -0.0 0.0 0.0 0.0 
800.949792709 567.406 -1811.15468662 -52.2886764954 63.8168072388 64.6497179241 9.16967 -1.37413 -4.29076 9.17924 -1.09858 -4.3693 9.24223 -0.87969 -4.41848 9.21841 -1.56585 -4.22467 -17.3567 -14.7563 14.9382 -18.4486 -36.5167 8.08383 -0.0 0.0 -0.0 13.5371 -28.1529 26.6448 6.90989 -11.7918 63.4542 0.765769 -20.7737 0.140365 58.0952 -1.60731 -6.92946 8.09134 -26.0769 44.6825 -0.0 0.0 -0.0 -6.65882 -23.4464 6.49407 13.9935 -33.2573 -89.555 0.182143 5.15587 -0.00820084 40.5738 0.379446 5.06236 -4.50179 13.3349 38.6933 0.0 0.0 0.0 27.9852 -33.9961 -12.9576 -12.6689 0.310943 1.91542 42.0297 10.7929 -5.05716 40.2105 -0.0 -0.0 -0.0 0.0 -0.0 53.198 4.72876 -10.5704 -47.6038 1.01994 -7.02796 -6.1385 -16.6984 -0.918864 19.7115 -0.0 -0.0 0.0 0.0 0.0 
799.05496056 563.228 -1807.66918556 -53.2327639843 62.9557845681 64.2731540123 9.43936 -1.29355 -4.27995 9.44897 -1.01885 -4.3534 9.5049 -0.820795 -4.39497 9.4811 -1.50399 -4.21073 -19.3167 -14.051 14.2519 -20.57 -34.3858 7.12152 -0.0 0.0 -0.0 13.4486 -28.3474 26.4135 6.00783 -12.479 62.6816 0.889242 -23.7734 0.187181 47.9331 -0.824845 -5.89131 6.58001 -16.1807 40.0329 -0.0 0.0 -0.0 -7.24046 -22.6487 7.5833 14.9244 -30.1675 -91.1886 0.178996 5.06727 -0.00792042 38.1736 0.257689 4.78059 -5.46934 11.5225 46.5328 0.0 0.0 0.0 30.0395 -33.281 -11.0645 -12.9261 0.312841 1.95483 42.313 15.3542 -5.14039 36.2696 -0.0 -0.0 -0.0 0.0 -0.0 52.9644 1.74551 -8.98657 -38.5529 0.377283 -5.79464 -4.07769 -27.3732 -0.636022 -4.13112 0.0 0.0 0.0 0.0 0.0 
788.174472982 564.78 -1809.1502341 -58.0844387603 64.2609990015 69.5624048215 9.51491 -1.28961 -4.31018 9.52467 -1.013 -4.38331 9.58015 -0.819423 -4.42352 9.55601 -1.50713 -4.23914 -19.8831 -14.3825 14.3172 -21.2954 -34.925 6.8225 -0.0 0.0 -0.0 13.4618 -28.097 26.4783 5.42294 -11.8649 65.1268 1.02601 -26.9415 0.245774 51.7092 -1.09387 -6.29295 7.80118 -26.3461 42.0112 -0.0 0.0 -0.0 -7.14073 -20.4413 8.15359 14.0406 -29.976 -90.6954 0.1803 5.10396 -0.00803597 36.2548 0.16893 4.55189 -5.88353 11.7947 50.8204 0.0 0.0 0.0 30.0342 -30.7429 -10.7729 -11.4173 0.299181 1.72374 42.8911 10.1955 -5.12297 40.2026 -0.0 -0.0 -0.0 0.0 -0.0 47.7455 2.54228 -9.25659 -29.1988 -0.0739205 -4.4321 -4.25247 -29.8822 -0.674193 -3.79092 0.0 0.0 0.0 0.0 0.0 
690.558958287 560.582 -1807.83414653 -95.7352276653 71.0061243437 111.333696472 9.00002 -1.11773 -5.31019 9.01537 -0.77806 -5.37031 9.057 -0.491409 -5.40399 9.01876 -1.33752 -5.25927 -10.2277 -12.9312 8.46647 -10.3171 -30.0009 4.91313 -0.0 0.0 -0.0 13.4739 -25.9553 26.7807 -8.15062 -9.05871 74.5183 0.471378 -13.1437 0.0543058 13.6555 0.277546 -1.71817 3.69337 -28.3756 11.5893 -0.0 0.0 -0.0 -9.23968 -24.0632 9.96032 7.49159 11.8735 -85.6008 0.339529 9.54758 -0.0283547 13.3979 -0.276125 1.6853 1.6214 0.834858 -10.5604 0.0 0.0 0.0 41.2225 7.83526 -22.5376 -27.7182 0.124679 4.21055 37.5755 -25.3551 -5.38647 12.3028 -0.0 -0.0 -0.0 0.0 -0.0 44.0897 19.338 -17.443 -33.3891 0.100597 -5.05132 42.6491 -26.8203 5.48171 16.3811 -0.0 -0.0 0.0 0.0 0.0 
690.938158059 560.582 -1808.88992545 -95.2361020065 71.0226161048 110.805856821 9.00002 -1.11773 -5.31019 9.01537 -0.77806 -5.37031 9.057 -0.491409 -5.40399 9.01876 -1.33752 -5.25927 -10.2277 -12.9312 8.46647 -10.3171 -30.0009 4.91313 -0.0 0.0 -0.0 13.4739 -25.9553 26.7807 -8.15062 -9.05871 74.5183 0.471378 -13.1437 0.0543058 13.6555 0.277546 -1.71817 3.69337 -28.3756 11.5893 -0.0 0.0 -0.0 -9.23968 -24.0632 9.96032 7.49159 11.8735 -85.6008 0.339529 9.54758 -0.0283547 13.3979 -0.276125 1.6853 1.6214 0.834858 -10.5604 0.0 0.0 0.0 41.2225 7.83526 -22.5376 -27.7182 0.124679 4.21055 37.5755 -25.3551 -5.38647 12.3028 -0.0 -0.0 -0.0 0.0 -0.0 44.0897 19.338 -17.443 -33.3891 0.100597 -5.05132 42.6491 -26.8203 5.48171 16.3811 -0.0 -0.0 0.0 0.0 0.0 
691.37516806 560.582 -1810.09443646 -94.6649691978 71.0396203737 110.2019284 9.00002 -1.11773 -5.31019 9.01537 -0.77806 -5.37031 9.057 -0.491409 -5.40399 9.01876 -1.33752 -5.25927 -10.2277 -12.9312 8.46647 -10.3171 -30.0009 4.91313 -0.0 0.0 -0.0 13.4739 -25.9553 26.7807 -8.15062 -9.05871 74.5183 0.471378 -13.1437 0.0543058 13.6555 0.277546 -1.71817 3.69337 -28.3756 11.5893 -0.0 0.0 -0.0 -9.23968 -24.0632 9.96032 7.49159 11.8735 -85.6008 0.339529 9.54758 -0.0283547 13.3979 -0.276125 1.6853 1.6214 0.834858 -10.5604 0.0 0.0 0.0 41.2225 7.83526 -22.5376 -27.7182 0.124679 4.21055 37.5755 -25.3551 -5.38647 12.3028 -0.0 -0.0 -0.0 0.0 -0.0 44.0897 19.338 -17.443 -33.3891 0.100597 -5.05132 42.6491 -26.8203 5.48171 16.3811 -0.0 -0.0 0.0 0.0 0.0 
692.093738118 560.582 -1812.04746665 -93.7353409324 71.063059784 109.219039745 9.00002 -1.11773 -5.31019 9.01537 -0.77806 -5.37031 9.057 -0.491409 -5.40399 9.01876 -1.33752 -5.25927 -10.2277 -12.9312 8.46647 -10.3171 -30.0009 4.91313 -0.0 0.0 -0.0 13.4739 -25.9553 26.7807 -8.15062 -9.05871 74.5183 0.471378 -13.1437 0.0543058 13.6555 0.277546 -1.71817 3.69337 -28.3756 11.5893 -0.0 0.0 -0.0 -9.23968 -24.0632 9.96032 7.49159 11.8735 -85.6008 0.339529 9.54758 -0.0283547 13.3979 -0.276125 1.6853 1.6214 0.834858 -10.5604 0.0 0.0 0.0 41.2225 7.83526 -22.5376 -27.7182 0.124679 4.21055 37.5755 -25.3551 -5.38647 12.3028 -0.0 -0.0 -0.0 0.0 -0.0 44.0897 19.338 -17.443 -33.3891 0.100597 -5.05132 42.6491 -26.8203 5.48171 16.3811 -0.0 -0.0 0.0 0.0 0.0 
